<svg width="417" height="512" viewBox="0 0 417 512" fill="none" xmlns="http://www.w3.org/2000/svg">
<path d="M10.496 286.592H102.144V505.984H10.496V286.592Z" fill="#2A2E4B"/>
<path d="M108.16 512H4.60803V280.704H108.16V512ZM16.512 500.096H96.256V292.608H16.512V500.096Z" fill="white"/>
<path d="M164.864 212.992H256.512V505.984H164.864V212.992Z" fill="#B1000A"/>
<path d="M262.4 512H158.848V207.104H262.4V512ZM170.752 500.096H250.496V219.008H170.752V500.096Z" fill="white"/>
<path d="M319.104 112.384H410.752V506.112H319.104V112.384Z" fill="#2A2E4B"/>
<path d="M416.768 512H313.216V106.368H416.768V512ZM325.12 500.096H404.864V118.272H325.12V500.096ZM8.448 257.152L0 248.704L158.208 90.496L217.984 150.272L364.928 3.328L373.376 11.648L217.984 167.04L158.208 107.392L8.448 257.152Z" fill="white"/>
<path d="M376.832 52.864H364.928V11.904H319.872V0H376.832V52.864Z" fill="white"/>
</svg>
