<svg width="512" height="245" viewBox="0 0 512 245" fill="none" xmlns="http://www.w3.org/2000/svg">
<path d="M79.616 169.088C78.336 169.088 77.312 168.704 76.288 167.68C74.496 165.888 74.496 163.072 76.288 161.28L148.992 88.576C150.784 86.784 153.6 86.784 155.392 88.576C157.184 90.368 157.184 93.184 155.392 94.976L82.688 167.68C81.92 168.704 80.896 169.088 79.616 169.088ZM350.592 166.272C349.312 166.272 348.288 165.888 347.264 164.864C345.472 163.072 345.472 160.256 347.264 158.464L429.056 76.672C430.848 74.88 433.664 74.88 435.456 76.672C437.248 78.464 437.248 81.28 435.456 83.072L353.664 164.864C352.896 165.76 351.744 166.272 350.592 166.272ZM282.496 164.48C281.216 164.48 280.192 164.096 279.168 163.072L211.2 94.976C209.408 93.184 209.408 90.368 211.2 88.576C212.992 86.784 215.808 86.784 217.6 88.576L285.696 156.672C287.488 158.464 287.488 161.28 285.696 163.072C284.928 164.096 283.776 164.48 282.496 164.48Z" fill="white"/>
<path d="M183.424 104.832C207.742 104.832 227.456 85.1182 227.456 60.8C227.456 36.4818 207.742 16.768 183.424 16.768C159.106 16.768 139.392 36.4818 139.392 60.8C139.392 85.1182 159.106 104.832 183.424 104.832Z" fill="#2A2E4B"/>
<path d="M183.424 109.312C156.544 109.312 134.784 87.552 134.784 60.672C134.784 33.792 156.544 12.032 183.424 12.032C210.304 12.032 232.064 33.792 232.064 60.672C232.064 87.552 210.304 109.312 183.424 109.312ZM183.424 21.376C161.664 21.376 143.872 39.04 143.872 60.928C143.872 82.816 161.536 100.48 183.424 100.48C205.312 100.48 222.976 82.816 222.976 60.928C222.976 39.04 205.184 21.376 183.424 21.376Z" fill="white"/>
<path d="M359.27 195.71C363.158 171.704 346.849 149.092 322.844 145.204C298.839 141.316 276.226 157.625 272.338 181.63C268.45 205.635 284.759 228.247 308.764 232.135C332.77 236.023 355.382 219.715 359.27 195.71Z" fill="#B1000A"/>
<path d="M315.904 237.184C289.024 237.184 267.264 215.424 267.264 188.544C267.264 161.664 289.024 139.904 315.904 139.904C342.784 139.904 364.544 161.664 364.544 188.544C364.544 215.424 342.656 237.184 315.904 237.184ZM315.904 149.248C294.144 149.248 276.352 166.912 276.352 188.8C276.352 210.688 294.016 228.352 315.904 228.352C337.664 228.352 355.456 210.688 355.456 188.8C355.456 166.912 337.536 149.248 315.904 149.248Z" fill="white"/>
<path d="M48.64 239.616C72.9582 239.616 92.672 219.902 92.672 195.584C92.672 171.266 72.9582 151.552 48.64 151.552C24.3218 151.552 4.60803 171.266 4.60803 195.584C4.60803 219.902 24.3218 239.616 48.64 239.616Z" fill="#B1000A"/>
<path d="M48.64 244.224C21.76 244.224 0 222.464 0 195.584C0 168.704 21.76 146.944 48.64 146.944C75.52 146.944 97.28 168.704 97.28 195.584C97.28 222.464 75.264 244.224 48.64 244.224ZM48.64 156.16C26.88 156.16 9.088 173.824 9.088 195.712C9.088 217.472 26.752 235.264 48.64 235.264C70.528 235.264 88.192 217.6 88.192 195.712C88.064 173.824 70.272 156.16 48.64 156.16Z" fill="white"/>
<path d="M463.36 92.928C487.678 92.928 507.392 73.2142 507.392 48.896C507.392 24.5778 487.678 4.864 463.36 4.864C439.042 4.864 419.328 24.5778 419.328 48.896C419.328 73.2142 439.042 92.928 463.36 92.928Z" fill="#2A2E4B"/>
<path d="M463.36 97.28C436.48 97.28 414.72 75.52 414.72 48.64C414.72 21.76 436.48 0 463.36 0C490.24 0 512 21.76 512 48.64C512 75.52 490.24 97.28 463.36 97.28ZM463.36 9.344C441.6 9.344 423.808 27.008 423.808 48.896C423.808 70.784 441.472 88.448 463.36 88.448C485.248 88.448 502.912 70.784 502.912 48.896C502.912 27.008 485.12 9.344 463.36 9.344Z" fill="white"/>
</svg>
