<svg width="16" height="16" viewBox="0 0 16 16" fill="none" xmlns="http://www.w3.org/2000/svg">
<path d="M14.4 0H1.6C1.17565 0 0.768687 0.210714 0.468629 0.585786C0.168571 0.960859 0 1.46957 0 2V14C0 14.5304 0.168571 15.0391 0.468629 15.4142C0.768687 15.7893 1.17565 16 1.6 16H14.4C14.8243 16 15.2313 15.7893 15.5314 15.4142C15.8314 15.0391 16 14.5304 16 14V2C16 1.46957 15.8314 0.960859 15.5314 0.585786C15.2313 0.210714 14.8243 0 14.4 0ZM14.4 2V2.01L8 9L1.6 2.01V2H14.4ZM1.6 14V4.99L8 10.99L14.4 4.99V14H1.6Z" fill="#B1000A"/>
</svg>
