<svg width="115" height="22" viewBox="0 0 115 22" fill="none" xmlns="http://www.w3.org/2000/svg">
<g clip-path="url(#clip0_4092_89)">
<path d="M9.00797 3.47136C7.65948 3.47136 7.25492 4.05766 7.25492 5.36352V7.52219H10.8689L10.5183 11.04H7.25492V21.6734H2.91276V11.04H0V7.54884H2.91276V5.44347C2.91276 1.87235 4.36914 0.00683594 8.38766 0.00683594C9.22373 0.00683594 10.0868 0.0601363 10.9228 0.166737V3.47136" fill="#004F9D"/>
<path d="M11.1656 14.1585C11.1656 10.2143 13.0535 7.22949 17.0451 7.22949C19.2027 7.22949 20.5242 8.32215 21.1715 9.70796V7.54929H25.3249V21.7005H21.1445V19.5685C20.5512 20.9277 19.1757 21.9937 17.0181 21.9937C13.0535 21.9937 11.1387 19.0355 11.1387 15.0646M15.5078 15.1179C15.5078 17.2233 16.2899 18.6358 18.3127 18.6358C20.0927 18.6358 20.9827 17.3566 20.9827 15.3311V13.892C20.9827 11.8666 20.0657 10.5874 18.3127 10.5874C16.2899 10.5874 15.5078 11.9732 15.5078 14.1052V15.1179Z" fill="#004F9D"/>
<path d="M34.3331 7.22949C36.0053 7.22949 37.6235 7.57594 38.4865 8.1889L37.5156 11.227C36.6256 10.8006 35.6277 10.5874 34.6298 10.5874C32.2834 10.5874 31.2586 11.9199 31.2586 14.2118V15.038C31.2586 17.3299 32.2834 18.6624 34.6298 18.6624C35.6277 18.6624 36.6256 18.4226 37.5156 17.9962L38.4865 21.0343C37.6235 21.6206 36.0322 21.9937 34.3331 21.9937C29.2358 21.9937 26.9434 19.302 26.9434 14.958V14.2918C26.9434 9.94781 29.2358 7.22949 34.3331 7.22949Z" fill="#004F9D"/>
<path d="M39.0527 15.1446V13.892C39.0527 9.86786 41.3722 7.22949 46.0919 7.22949C50.5419 7.22949 52.5108 9.89451 52.5108 13.8387V16.104H43.3949C43.4758 18.0495 44.3658 18.9023 46.7661 18.9023C48.3304 18.9023 49.8947 18.6091 51.378 18.0495L52.1601 20.981C51.0274 21.5673 48.681 22.0203 46.6043 22.0203C41.1025 21.9937 39.0527 19.302 39.0527 15.1446ZM43.3949 13.2791H48.6271V12.9326C48.6271 11.3869 48.0068 10.161 46.0919 10.161C44.1501 10.161 43.3949 11.3869 43.3949 13.2791Z" fill="#004F9D"/>
<path d="M68.5845 15.0646C68.5845 19.0088 66.6696 21.9936 62.6781 21.9936C60.5205 21.9936 59.0102 20.9276 58.4168 19.5685V21.7005H54.3174V0.433649L58.6596 0.0605469V9.52136C59.2799 8.2688 60.6823 7.2561 62.705 7.2561C66.6696 7.2561 68.6115 10.2143 68.6115 14.1851M64.2423 14.0785C64.2423 12.0798 63.4602 10.5874 61.3835 10.5874C59.6035 10.5874 58.6596 11.8399 58.6596 13.8653V15.3577C58.6596 17.3832 59.6305 18.6357 61.3835 18.6357C63.4602 18.6357 64.2423 17.1433 64.2423 15.1445V14.0785Z" fill="#004F9D"/>
<path d="M70.0137 14.958V14.2385C70.0137 10.161 72.3601 7.22949 77.1337 7.22949C81.9074 7.22949 84.2538 10.161 84.2538 14.2385V14.958C84.2538 19.0355 81.9074 21.967 77.1337 21.967C72.3601 21.967 70.0137 19.0622 70.0137 14.958ZM79.9386 13.9453C79.9386 12.0798 79.1565 10.5874 77.1337 10.5874C75.111 10.5874 74.3289 12.0798 74.3289 13.9453V15.2778C74.3289 17.1434 75.111 18.6358 77.1337 18.6358C79.1565 18.6358 79.9386 17.1434 79.9386 15.2778V13.9453Z" fill="#004F9D"/>
<path d="M85.7373 14.958V14.2385C85.7373 10.161 88.0837 7.22949 92.8574 7.22949C97.6311 7.22949 99.9775 10.161 99.9775 14.2385V14.958C99.9775 19.0355 97.6311 21.967 92.8574 21.967C88.0837 21.967 85.7373 19.0622 85.7373 14.958ZM95.6623 13.9453C95.6623 12.0798 94.8801 10.5874 92.8574 10.5874C90.8346 10.5874 90.0525 12.0798 90.0525 13.9453V15.2778C90.0525 17.1434 90.8346 18.6358 92.8574 18.6358C94.8801 18.6358 95.6623 17.1434 95.6623 15.2778V13.9453Z" fill="#004F9D"/>
<path d="M105.938 14.2911L110.226 7.5219H114.811L110.334 14.5309L115 21.6998H110.388L105.938 14.7708V21.6998H101.623V0.432956L105.938 0.0332031" fill="#004F9D"/>
</g>
<defs>
<clipPath id="clip0_4092_89">
<rect width="115" height="22" fill="white"/>
</clipPath>
</defs>
</svg>
