<svg width="20" height="20" viewBox="0 0 20 20" fill="none" xmlns="http://www.w3.org/2000/svg">
<mask id="mask0_4092_50" style="mask-type:luminance" maskUnits="userSpaceOnUse" x="0" y="0" width="19" height="20">
<path d="M18.5413 8.33301H9.99967V11.8747H14.9163C14.458 14.1247 12.5413 15.4163 9.99967 15.4163C6.99967 15.4163 4.58301 12.9997 4.58301 9.99967C4.58301 6.99967 6.99967 4.58301 9.99967 4.58301C11.2913 4.58301 12.458 5.04134 13.3747 5.79134L16.0413 3.12467C14.4163 1.70801 12.333 0.833008 9.99967 0.833008C4.91634 0.833008 0.833008 4.91634 0.833008 9.99967C0.833008 15.083 4.91634 19.1663 9.99967 19.1663C14.583 19.1663 18.7497 15.833 18.7497 9.99967C18.7497 9.45801 18.6663 8.87467 18.5413 8.33301Z" fill="white"/>
</mask>
<g mask="url(#mask0_4092_50)">
<path d="M0 15.4163V4.58301L7.08333 9.99967L0 15.4163Z" fill="#FBBC05"/>
</g>
<mask id="mask1_4092_50" style="mask-type:luminance" maskUnits="userSpaceOnUse" x="0" y="0" width="19" height="20">
<path d="M18.5413 8.33301H9.99967V11.8747H14.9163C14.458 14.1247 12.5413 15.4163 9.99967 15.4163C6.99967 15.4163 4.58301 12.9997 4.58301 9.99967C4.58301 6.99967 6.99967 4.58301 9.99967 4.58301C11.2913 4.58301 12.458 5.04134 13.3747 5.79134L16.0413 3.12467C14.4163 1.70801 12.333 0.833008 9.99967 0.833008C4.91634 0.833008 0.833008 4.91634 0.833008 9.99967C0.833008 15.083 4.91634 19.1663 9.99967 19.1663C14.583 19.1663 18.7497 15.833 18.7497 9.99967C18.7497 9.45801 18.6663 8.87467 18.5413 8.33301Z" fill="white"/>
</mask>
<g mask="url(#mask1_4092_50)">
<path d="M0 4.58333L7.08333 10L10 7.45833L20 5.83333V0H0V4.58333Z" fill="#EA4335"/>
</g>
<mask id="mask2_4092_50" style="mask-type:luminance" maskUnits="userSpaceOnUse" x="0" y="0" width="19" height="20">
<path d="M18.5413 8.33301H9.99967V11.8747H14.9163C14.458 14.1247 12.5413 15.4163 9.99967 15.4163C6.99967 15.4163 4.58301 12.9997 4.58301 9.99967C4.58301 6.99967 6.99967 4.58301 9.99967 4.58301C11.2913 4.58301 12.458 5.04134 13.3747 5.79134L16.0413 3.12467C14.4163 1.70801 12.333 0.833008 9.99967 0.833008C4.91634 0.833008 0.833008 4.91634 0.833008 9.99967C0.833008 15.083 4.91634 19.1663 9.99967 19.1663C14.583 19.1663 18.7497 15.833 18.7497 9.99967C18.7497 9.45801 18.6663 8.87467 18.5413 8.33301Z" fill="white"/>
</mask>
<g mask="url(#mask2_4092_50)">
<path d="M0 15.4167L12.5 5.83333L15.7917 6.25L20 0V20H0V15.4167Z" fill="#34A853"/>
</g>
<mask id="mask3_4092_50" style="mask-type:luminance" maskUnits="userSpaceOnUse" x="0" y="0" width="19" height="20">
<path d="M18.5413 8.33301H9.99967V11.8747H14.9163C14.458 14.1247 12.5413 15.4163 9.99967 15.4163C6.99967 15.4163 4.58301 12.9997 4.58301 9.99967C4.58301 6.99967 6.99967 4.58301 9.99967 4.58301C11.2913 4.58301 12.458 5.04134 13.3747 5.79134L16.0413 3.12467C14.4163 1.70801 12.333 0.833008 9.99967 0.833008C4.91634 0.833008 0.833008 4.91634 0.833008 9.99967C0.833008 15.083 4.91634 19.1663 9.99967 19.1663C14.583 19.1663 18.7497 15.833 18.7497 9.99967C18.7497 9.45801 18.6663 8.87467 18.5413 8.33301Z" fill="white"/>
</mask>
<g mask="url(#mask3_4092_50)">
<path d="M19.9993 19.9997L7.08268 9.99967L5.41602 8.74967L19.9993 4.58301V19.9997Z" fill="#4285F4"/>
</g>
</svg>
