<svg width="16" height="20" viewBox="0 0 16 20" fill="none" xmlns="http://www.w3.org/2000/svg">
<path d="M8 0C3.57714 0 0 3.13 0 7C0 12.25 8 20 8 20C8 20 16 12.25 16 7C16 3.13 12.4229 0 8 0ZM8 9.5C7.24224 9.5 6.51551 9.23661 5.9797 8.76777C5.44388 8.29893 5.14286 7.66304 5.14286 7C5.14286 6.33696 5.44388 5.70107 5.9797 5.23223C6.51551 4.76339 7.24224 4.5 8 4.5C8.75776 4.5 9.48449 4.76339 10.0203 5.23223C10.5561 5.70107 10.8571 6.33696 10.8571 7C10.8571 7.66304 10.5561 8.29893 10.0203 8.76777C9.48449 9.23661 8.75776 9.5 8 9.5Z" fill="#B1000A"/>
</svg>
