<svg width="16" height="16" viewBox="0 0 16 16" fill="none" xmlns="http://www.w3.org/2000/svg">
<path d="M3.14783 6.39059C4.40368 9.0621 6.41001 11.2337 8.87826 12.5929L10.7913 10.5224C10.915 10.3879 11.0734 10.2971 11.2457 10.2619C11.4179 10.2266 11.596 10.2485 11.7565 10.3247C12.8087 10.7765 13.9565 11.0212 15.1304 11.0212C15.3611 11.0212 15.5822 11.1203 15.7453 11.2968C15.9084 11.4733 16 11.7127 16 11.9624V15.0588C16 15.3084 15.9084 15.5478 15.7453 15.7243C15.5822 15.9008 15.3611 16 15.1304 16C6.14783 16 0 9.34588 0 0.941176C0 0.691561 0.0916146 0.452169 0.25469 0.275664C0.417765 0.0991596 0.638942 0 0.869565 0H3.91304C4.14367 0 4.36484 0.0991596 4.52792 0.275664C4.69099 0.452169 4.78261 0.691561 4.78261 0.941176C4.78261 2.21176 5.0087 3.45412 5.42609 4.59294C5.49649 4.76671 5.51672 4.95945 5.48414 5.14588C5.45155 5.33231 5.36766 5.50373 5.24348 5.63765L3.33043 7.70823L3.14783 6.39059Z" fill="#B1000A"/>
</svg>
