<svg width="18" height="16" viewBox="0 0 18 16" fill="none" xmlns="http://www.w3.org/2000/svg">
<g clip-path="url(#clip0_4128_197)">
<path d="M17.7123 7.30063L11.2119 0.800047C11.0263 0.614487 10.779 0.512634 10.5153 0.512634C10.2513 0.512634 10.0041 0.614633 9.81856 0.800047L9.22836 1.39038C9.04295 1.57565 8.94081 1.82311 8.94081 2.08696C8.94081 2.35067 9.04295 2.60647 9.22836 2.79174L13.0206 6.59234H0.972431C0.429216 6.59234 0 7.01761 0 7.56097V8.39555C0 8.93891 0.429216 9.40705 0.972431 9.40705H13.0637L9.22851 13.2289C9.0431 13.4144 8.94095 13.6552 8.94095 13.919C8.94095 14.1826 9.0431 14.4268 9.22851 14.6122L9.8187 15.2007C10.0043 15.3862 10.2514 15.4873 10.5154 15.4873C10.7791 15.4873 11.0264 15.3849 11.212 15.1993L17.7124 8.69891C17.8984 8.51276 18.0007 8.26428 18 8.00013C18.0006 7.73511 17.8984 7.48648 17.7123 7.30063Z" fill="#B1000A"/>
</g>
<defs>
<clipPath id="clip0_4128_197">
<rect width="18" height="16" fill="white"/>
</clipPath>
</defs>
</svg>
