<svg width="32" height="30" viewBox="0 0 32 30" fill="none" xmlns="http://www.w3.org/2000/svg">
<g clip-path="url(#clip0_4091_27)">
<path fill-rule="evenodd" clip-rule="evenodd" d="M14.095 1.10193C14.3085 0.443259 14.9225 -0.00195312 15.6137 -0.00195312C16.3049 -0.00195312 16.9168 0.443259 17.1302 1.10193L19.8076 9.35157C19.8869 9.59349 20.0414 9.80491 20.2467 9.95535C20.4541 10.1058 20.7041 10.1871 20.9583 10.1871L29.6328 10.183C30.324 10.183 30.9359 10.6282 31.1494 11.2869C31.3628 11.9436 31.129 12.6632 30.57 13.0698L23.5523 18.1664C23.3449 18.3168 23.1904 18.5282 23.1111 18.7702C23.0318 19.0141 23.0339 19.2764 23.1111 19.5183L25.7946 27.766C26.0081 28.4246 25.7743 29.1443 25.2152 29.5509C24.6562 29.9575 23.8979 29.9575 23.3388 29.5509L16.3252 24.4502C16.1178 24.2998 15.8698 24.2185 15.6137 24.2185C15.3575 24.2185 15.1095 24.2998 14.9021 24.4502L7.88646 29.5509C7.3274 29.9575 6.5711 29.9575 6.01204 29.5509C5.45095 29.1443 5.21721 28.4246 5.4327 27.766L8.11415 19.5183C8.19344 19.2764 8.19344 19.0141 8.11415 18.7702C8.0369 18.5282 7.88239 18.3168 7.67503 18.1664L0.657329 13.0698C0.0982708 12.6632 -0.137572 11.9436 0.0758866 11.2869C0.291378 10.6282 0.903312 10.183 1.59451 10.183L10.267 10.1871C10.5232 10.1871 10.7732 10.1058 10.9786 9.95535C11.1859 9.80491 11.3404 9.59349 11.4177 9.35157L14.095 1.10193Z" fill="#F6BB06"/>
</g>
<defs>
<clipPath id="clip0_4091_27">
<rect width="32" height="30" fill="white"/>
</clipPath>
</defs>
</svg>
