<svg width="16" height="16" viewBox="0 0 16 16" fill="none" xmlns="http://www.w3.org/2000/svg">
<path d="M5.89922 10.2937C6.3773 10.1984 6.70497 9.86766 6.73493 9.44967C6.7652 9.02395 6.46193 8.64516 5.9894 8.50993L5.04506 8.21519C1.61587 7.13169 1.60159 7.13169 1.37663 7.12953C1.00615 7.11487 0.662806 7.26345 0.443432 7.52724C0.443094 7.52778 0.442741 7.52831 0.442371 7.52884C0.0210471 8.04364 -0.0632177 9.43285 0.0398179 10.1984C0.0878875 10.5332 0.166235 10.7754 0.277636 10.9365C0.46461 11.2105 0.799261 11.3796 1.1659 11.3889C1.18994 11.39 1.21153 11.391 1.23417 11.391C1.43265 11.391 1.72862 11.3193 4.5662 10.6204C5.52555 10.3859 5.80761 10.3169 5.89922 10.2937ZM7.55219 10.8198C7.03648 10.6673 6.47344 10.7692 6.15654 11.0698C6.15617 11.0698 5.56387 11.6097 5.50364 11.6628C5.50087 11.6652 5.49805 11.6676 5.49528 11.6702C3.09575 13.8274 3.08947 13.8415 3.01426 14.0077C2.95958 14.1203 2.94044 14.2403 2.9575 14.3481C2.9777 14.5103 3.0658 14.6647 3.22111 14.8088C3.77791 15.3183 6.10361 15.9995 7.17922 15.9995C7.26349 15.9995 7.34008 15.9952 7.40766 15.9864C7.80845 15.9296 8.11242 15.7434 8.24128 15.4756C8.24165 15.474 8.24235 15.4727 8.24304 15.4714C8.31686 15.31 8.32102 15.3001 8.32975 12.7615C8.32975 12.7615 8.33706 11.7484 8.33881 11.6937C8.36913 11.3131 8.06023 10.9698 7.55219 10.8198ZM15.6084 11.2445C15.4287 11.1415 15.4217 11.1378 12.2708 10.3455C12.2708 10.3455 11.0663 10.0406 10.9514 10.0092L10.9486 10.0084C10.4851 9.87044 9.9642 9.99129 9.62261 10.314C9.27127 10.6424 9.22635 11.0863 9.50526 11.4119L10.037 12.0753C11.9748 14.4864 11.9974 14.5003 12.1743 14.6059C12.3547 14.714 12.5688 14.7689 12.7938 14.7689C12.938 14.7689 13.0863 14.7465 13.2336 14.7006C14.1055 14.4341 15.8542 12.7307 15.9869 12.0182C16.0447 11.7091 15.9099 11.4288 15.6084 11.2445ZM10.4564 9.19153C10.4799 9.1954 10.5038 9.19727 10.5278 9.19713C10.57 9.19715 10.6119 9.19127 10.6514 9.17978C10.8039 9.13548 11.1225 9.076 11.6292 8.984C11.6295 8.984 11.6299 8.984 11.6306 8.98372C15.2147 8.31872 15.2391 8.30672 15.4351 8.20937C15.7398 8.05199 15.9021 7.78632 15.8822 7.48035C15.8825 7.46469 15.8818 7.44902 15.8802 7.4334C15.7788 6.69478 14.2258 4.93963 13.3971 4.62913C13.0287 4.49444 12.6376 4.5091 12.3294 4.6678C12.14 4.76195 12.14 4.76195 10.1757 6.81988C10.1757 6.81988 9.38496 7.64384 9.34734 7.68225C9.03219 7.97674 9.02003 8.39233 9.31636 8.74121C9.58307 9.05362 10.0236 9.2246 10.4564 9.19153ZM7.93051 0.605728C7.82743 0.317927 7.5346 0.10771 7.12613 0.0287502C6.13581 -0.157959 2.65961 0.589192 1.95656 1.14373C1.67765 1.36698 1.56691 1.65934 1.6599 1.92501C1.66549 1.94102 1.67313 1.95621 1.68218 1.97115C1.78004 2.12694 4.96549 5.96801 5.937 7.13797C6.34441 7.64478 6.79152 7.89925 7.26614 7.89925C7.37897 7.89925 7.49282 7.88484 7.6081 7.8563C8.21782 7.71545 8.50371 7.27479 8.45739 6.54659C8.40545 5.62929 7.99633 0.887402 7.93051 0.605728Z" fill="white"/>
</svg>
